<svg xmlns="http://www.w3.org/2000/svg" viewBox="0 0 406 404.33"><rect x="112.25" width="60.52" height="60.52" style="fill:#d0c6f4"/><rect x="118.58" y="6.33" width="47.86" height="47.86" style="fill:#fff"/><rect x="189.36" y="39.1" width="60.52" height="60.52" style="fill:#d0c6f4"/><rect x="195.69" y="45.43" width="47.86" height="47.86" style="fill:#fff"/><ellipse cx="84.19" cy="374" rx="47.35" ry="8.5" style="fill:#d0c6f4"/><ellipse cx="274.79" cy="390.08" rx="127.25" ry="14.25" style="fill:#d0c6f4"/><rect x="81.87" y="46.24" width="2" height="193.23" style="fill:#44149c"/><path d="M134.87,279.32a206,206,0,0,1,7.47-64c8.86-30.84,29.79-70.62,79.17-85l.56,1.92c-48.49,14.11-69.07,53.23-77.8,83.57a203.81,203.81,0,0,0-7.4,63.33Z" transform="translate(-47 -48.42)" style="fill:#44149c"/><path d="M123.11,283.19l-2-.22c.11-1,11.11-105.17-34.55-139.76l1.21-1.59c24.39,18.47,32.68,56,35.35,84.29A316,316,0,0,1,123.11,283.19Z" transform="translate(-47 -48.42)" style="fill:#44149c"/><path d="M193.83,143.69s2.71-33.94,64.37-20.27C227.87,153.42,193.83,143.69,193.83,143.69Z" transform="translate(-47 -48.42)" style="fill:#925fff"/><path d="M102.23,158.54s7.68-33.17-55.23-38.78C66.85,157.53,102.23,158.54,102.23,158.54Z" transform="translate(-47 -48.42)" style="fill:#925fff"/><path d="M119.78,205.66s.39-31.27-57.15-24C87.83,211.68,119.78,205.66,119.78,205.66Z" transform="translate(-47 -48.42)" style="fill:#b397ff"/><path d="M130.6,260.16s8.78-30-48.62-38.44C98.21,257.38,130.6,260.16,130.6,260.16Z" transform="translate(-47 -48.42)" style="fill:#794cf2"/><path d="M159.54,179.5s-22.13-17,14.84-53.31C181.44,160.45,159.54,179.5,159.54,179.5Z" transform="translate(-47 -48.42)" style="fill:#b397ff"/><path d="M130.94,169.11s-27.92.6-21.85-50.84C136.07,140.54,130.94,169.11,130.94,169.11Z" transform="translate(-47 -48.42)" style="fill:#925fff"/><path d="M128.58,192.67s27.92.59,21.85-50.85C123.45,164.1,128.58,192.67,128.58,192.67Z" transform="translate(-47 -48.42)" style="fill:#b397ff"/><path d="M130.3,125.81s-25-12.52,4.44-55.17C148.18,102.94,130.3,125.81,130.3,125.81Z" transform="translate(-47 -48.42)" style="fill:#b397ff"/><path d="M150.48,194.41s17.37,21.86,53.08-15.67C169.19,172.21,150.48,194.41,150.48,194.41Z" transform="translate(-47 -48.42)" style="fill:#925fff"/><path d="M150.85,302.29c-9.09-12.56-1.56-34-1.56-34H110.45s7.53,21.44-1.56,34S79,343.2,90.68,375.13s19.1,49.12,19.1,49.12H150s7.37-17.19,19.1-49.12S159.94,314.85,150.85,302.29Z" transform="translate(-47 -48.42)" style="fill:#652edd"/><path d="M132,302.29c9.09-12.56,1.56-34,1.56-34h-23.1s7.53,21.44-1.56,34S79,343.2,90.68,375.13s19.1,49.12,19.1,49.12h23.1s-7.37-17.19-19.1-49.12S122.9,314.85,132,302.29Z" transform="translate(-47 -48.42)" style="fill:#6f45e5"/><path d="M419.41,188c-19.41-16.5-55.89-14.27-76.84-14.27H285.78c-21,0-57.43-2.23-76.84,14.27s3.11,83.84,3.11,83.84L228,324.74l86.21-3.07,86.22,3.07,15.91-52.87S438.81,204.53,419.41,188Z" transform="translate(-47 -48.42)" style="fill:#863aff"/><rect x="190.47" y="252.7" width="155.19" height="37.91" rx="11" style="fill:#652edd"/><path d="M208.94,197.22c19.41-15.39,55.88-13.31,76.84-13.31h56.79c20.95,0,57.43-2.08,76.84,13.31,5.16,4.1,7.35,11.55,7.8,20.28.51-12.58-1.27-23.91-7.8-29.47-19.41-16.5-55.89-14.27-76.84-14.27H285.78c-21,0-57.43-2.23-76.84,14.27-6.53,5.56-8.31,16.89-7.8,29.47C201.58,208.77,203.78,201.32,208.94,197.22Z" transform="translate(-47 -48.42)" style="fill:#925fff"/><rect x="185.41" y="283.9" width="158.76" height="61.54" style="fill:#863aff"/><rect x="174.79" y="345.44" width="190.72" height="12.04" style="fill:#fff"/><path d="M180.29,354.58h9.36a0,0,0,0,1,0,0v29.75a4.58,4.58,0,0,1-4.58,4.58h-.2a4.58,4.58,0,0,1-4.58-4.58V354.58A0,0,0,0,1,180.29,354.58Z" style="fill:#fff"/><path d="M350.64,354.58H360a0,0,0,0,1,0,0v29.75a4.58,4.58,0,0,1-4.58,4.58h-.2a4.58,4.58,0,0,1-4.58-4.58V354.58A0,0,0,0,1,350.64,354.58Z" style="fill:#fff"/><path d="M412.73,393.86s45.93-100.79,39.69-130.22-39.69-28.54-49.95-7.13-23.63,137.35-23.63,137.35Z" transform="translate(-47 -48.42)" style="fill:#925fff"/><path d="M221.56,393.86s-45.93-100.79-39.69-130.22,39.69-28.54,49.95-7.13,23.63,137.35,23.63,137.35Z" transform="translate(-47 -48.42)" style="fill:#925fff"/><circle cx="380.29" cy="223.08" r="7.75" style="fill:#863aff"/><circle cx="161.81" cy="223.08" r="7.75" style="fill:#863aff"/><path d="M97.82,223.64s-6.89,1.81-10.16,4.68-7,9.2-11,3.7S55.7,187.55,57.15,182.61c12.7.41,18.24,8.47,19.44,15.33S82,213.27,85,214.29s8.34-1.36,8.34-1.36Z" transform="translate(-47 -48.42)" style="fill:#ffabd9"/><path d="M80.61,234.14s-11.06-20.33-11.82-25a49.55,49.55,0,0,1,12-4.19s-3-15.52-11.46-21.38-12.36-3.28-13.83-2.49,2.47,14.13,8.19,28.24,12.57,25.13,13.64,26.35S81.43,235.65,80.61,234.14Z" transform="translate(-47 -48.42)" style="fill:#fff"/><path d="M276.4,244.71s-55.86-57-84.86-60-97,29.05-102,28.53c12,17,11.5,24.44,11.5,24.44s40.5-13.72,56.5-15.84,35-9.7,40-2.91,78,61.78,83.5,60.28S276.4,244.71,276.4,244.71Z" transform="translate(-47 -48.42)" style="fill:#3a128e"/><path d="M151,308.5s-3.18,6.38-3.18,10.72,2.31,11.31-4.5,10.73-47.23-13.62-50-18c8.69-9.27,18.4-8.11,24.34-4.49s15.07,6.08,17.82,4.49,4.49-7.17,4.49-7.17Z" transform="translate(-47 -48.42)" style="fill:#ffabd9"/><path d="M274,240.94s-38.08-29.05-83.5-31.81c-32-1.95-44.67,84.15-54.67,96.65,11,8.84,21.82,8.49,21.82,8.49s23.6-59.52,32.6-63c14.59-5.59,39.11-5.55,41.68,16.95S248,308.31,281,305,274,240.94,274,240.94Z" transform="translate(-47 -48.42)" style="fill:#44149c"/><path d="M147.48,328.35s-22.57-5.1-26.57-7.6A49.37,49.37,0,0,1,125.66,309S112,301,102,303.5s-10.63,7.13-11,8.75,12.25,7.47,26.62,12.49,27.17,7.14,28.8,7.14S149.16,328.74,147.48,328.35Z" transform="translate(-47 -48.42)" style="fill:#fff"/><path d="M287.79,170.75s-15.5-4.25-22.5-4.87-15.13,2.75-18.88,9.12c8.38.38,15.38,1.63,17.5,2.75s-5.14,3.19-5.76,6.28,2.64,1.54,5.51,0S276,178.63,285,180.5C290.79,178.75,287.79,170.75,287.79,170.75Z" transform="translate(-47 -48.42)" style="fill:#ffabd9"/><path d="M395.55,233.75s-35.68-38.16-47.68-44-52-21.67-62.33-22a138.62,138.62,0,0,0-5,13.5S323,199.6,332,207.18s33.25,35.24,35.5,37.53S392.81,242.75,395.55,233.75Z" transform="translate(-47 -48.42)" style="fill:#fff"/><path d="M274.54,238.79s34,20,63.14,7.37c31.71-13.71,49.77-9.25,58.67-8.44,3.45,1.26,7.44-4.09,9.63-2.05a11.26,11.26,0,0,1,2.17,14.38c-6.65,10.91-3.83,21.45-25.82,49.37C363,323.93,272.5,306.66,265,306.66,280,292.58,274.54,238.79,274.54,238.79Z" transform="translate(-47 -48.42)" style="fill:#ded4f9"/><path d="M299.54,245.32s-3.17-9.74-6.84-11.07-4.16,0-4.16,0-15.84-10.58-21,2.21c8.86,8.25,12.33,9.46,16,10.29s6.33,4.55,6.33,4.55Z" transform="translate(-47 -48.42)" style="fill:#ffabd9"/><path d="M399,257s-12.57-4.05-20.2,4.68-39,22.07-45.3,22.07-26.34-36.52-34-38.43c-8.34,4.1-13,6-13,6s17.6,41.12,27.63,51.45,28,9.67,49,0S414.37,266.33,399,257Z" transform="translate(-47 -48.42)" style="fill:#fff"/><path d="M423.52,228.11s-6,14.08-15.44,22c-3.38,2.85-12.48,0-15.42-3.29a37.4,37.4,0,0,1-5.69-8.15l5.87-7.22S419.75,222.56,423.52,228.11Z" transform="translate(-47 -48.42)" style="fill:#f998d2"/><path d="M408.79,197.92s-10.05.25-12.77,5.88-10.08,6.25-10.83,7.32c-.78,1.86,1.79,4.08,3.06,4.61-1.3,5.32-6.5,12.2-5.87,15.66s13.95,12.45,23.67,8.28c7.92-3.39,10.44-9.36,10.44-9.36s3.54,3.42,6.44.68,5.25-9.62,1.16-11.82-5.17-.2-5.17-.2,9.69-5.81,8.75-13.26S414.19,194.48,408.79,197.92Z" transform="translate(-47 -48.42)" style="fill:#ffabd9"/><path d="M420,218.23c-.65.47-1.09.74-1.09.74A1.76,1.76,0,0,1,420,218.23Z" transform="translate(-47 -48.42)" style="fill:#ff74ef"/><path d="M382.87,210.33c.74-1.07,4.65-3.23,10.25-6.33,10.28-5.69,12.93-11.06,12.93-11.06,4-2.51,13.22,1.52,18.26,6.78-6.61,2.15-15.34,3.61-21.46,5.3-3.19,2.92-14.52,14.38-14,25.66a27.27,27.27,0,0,0,.58,7c-4-2.1-6.81-4.78-7.09-6.33-.63-3.46,4.57-10.35,5.87-15.66C387,215.2,382.09,212.19,382.87,210.33Z" transform="translate(-47 -48.42)" style="fill:#ffc2e6"/><path d="M445.54,202.08c4-12.66-20.63-26-20.63-19.45-1.37-2-12.5-9.5-18.87-10s-4.35,6.06-4.35,6.06-5.28-4.31-9-3.69-7.62,8.5.75,18.88c6.59,8.16,18.29,9.14,23,9.19-1.92,2.42-1.62,10.16-.6,12.56,1.12,2.63-4.35,7.3-4.35,7.3l2.63,2.57,3.33-3.58a5.93,5.93,0,0,1,6.47-1.62c1.91.76,3.15,3,1.13,7.59a8.36,8.36,0,0,1-4.4,4.16c-.07,0-.09.12-.14.18a69.07,69.07,0,0,0-7,12.32s.06.72,7.45-.92a31,31,0,0,0,13.88-5.92h0C450.1,232.52,456.54,204.75,445.54,202.08Z" transform="translate(-47 -48.42)" style="fill:#44149c"/><path d="M400.38,212.88a12.24,12.24,0,0,0,3.67.38.3.3,0,0,0,0-.59c-.06,0-6,.34-6.58-3.29a.29.29,0,0,0-.34-.25.3.3,0,0,0-.25.34C397.15,211.47,398.76,212.43,400.38,212.88Z" transform="translate(-47 -48.42)" style="fill:#44149c"/><path d="M396,225.38a.3.3,0,0,1,.35.24.29.29,0,0,1-.24.34,11.47,11.47,0,0,1-5.12-.23,12.65,12.65,0,0,1-5.5-3.28l.28-.57A11.35,11.35,0,0,0,396,225.38Z" transform="translate(-47 -48.42)" style="fill:#44149c"/><path d="M407.11,211.32s-3.9-5-6.67-5.79-1.23-2.25-.08-2.49S408.77,208.51,407.11,211.32Z" transform="translate(-47 -48.42)" style="fill:#44149c"/><circle cx="370.1" cy="178.73" r="10.57" style="fill:#925fff"/><circle cx="370.1" cy="180.84" r="10.57" style="fill:#652edd"/><path d="M445.54,202.08s.37,4.31-5.75,9.24a147.67,147.67,0,0,1-14.88,10.06s2.75,3.24,2.75,5.43c3.94-.93,13.14-7.79,17.88-12.36s5.27-6.45,5.51-9.2S446.09,199.37,445.54,202.08Z" transform="translate(-47 -48.42)" style="fill:#925fff"/></svg>